<?xml version="1.0" standalone="no"?>
<!DOCTYPE svg PUBLIC "-//W3C//DTD SVG 20010904//EN"
 "http://www.w3.org/TR/2001/REC-SVG-20010904/DTD/svg10.dtd">
<svg version="1.0" xmlns="http://www.w3.org/2000/svg"
 width="1800.000000pt" height="1014.000000pt" viewBox="0 0 1800.000000 1014.000000"
 preserveAspectRatio="xMidYMid meet">
<g transform="translate(0.000000,1014.000000) scale(0.100000,-0.100000)"
fill="#000000" stroke="none">
<path d="M5515 9889 c-125 -12 -227 -28 -239 -38 -6 -5 -37 -12 -69 -16 -31
-4 -60 -11 -63 -16 -3 -5 -17 -9 -32 -9 -15 0 -39 -6 -53 -14 -14 -7 -47 -16
-72 -20 -26 -4 -49 -11 -52 -16 -3 -4 -23 -11 -45 -15 -22 -4 -42 -11 -46 -16
-3 -5 -15 -9 -27 -9 -12 0 -35 -7 -50 -15 -15 -8 -43 -17 -63 -21 -19 -3 -37
-10 -40 -15 -3 -5 -14 -9 -26 -9 -11 0 -32 -6 -46 -14 -15 -8 -44 -18 -64 -21
-21 -3 -38 -10 -38 -14 0 -5 -20 -12 -45 -15 -24 -4 -47 -11 -50 -17 -4 -5
-18 -9 -32 -9 -13 0 -37 -7 -51 -15 -15 -8 -49 -19 -77 -25 -27 -6 -70 -16
-95 -21 -46 -11 -177 -3 -195 11 -5 4 -28 10 -50 14 -22 4 -53 13 -70 20 -64
29 -104 37 -196 43 -90 5 -98 4 -140 -20 -72 -43 -92 -78 -92 -162 1 -52 6
-81 22 -110 11 -22 21 -48 21 -57 0 -18 3 -25 33 -86 9 -19 17 -43 17 -54 0
-11 7 -35 16 -53 19 -41 15 -79 -9 -83 -11 -2 -47 10 -82 27 -34 17 -70 31
-79 31 -9 0 -16 4 -16 8 0 8 -92 52 -109 52 -5 0 -11 3 -13 8 -4 9 -151 82
-166 82 -5 0 -12 3 -14 8 -4 10 -148 82 -165 82 -7 0 -13 4 -13 9 0 5 -13 12
-30 16 -16 4 -32 11 -35 16 -4 5 -13 9 -21 9 -13 0 -39 10 -129 50 -11 5 -36
12 -55 15 -19 4 -50 13 -69 22 -26 12 -71 16 -185 16 -136 0 -155 -2 -191 -21
-22 -12 -43 -22 -47 -22 -14 0 -112 -63 -140 -90 -14 -14 -53 -47 -85 -75 -33
-27 -79 -74 -104 -103 -24 -30 -59 -70 -77 -90 -18 -20 -35 -47 -38 -59 -4
-13 -10 -23 -14 -23 -5 0 -25 -28 -46 -62 -21 -35 -48 -76 -60 -93 -12 -16
-25 -41 -29 -55 -4 -13 -14 -30 -21 -38 -8 -7 -14 -20 -14 -28 0 -8 -4 -14 -9
-14 -5 0 -12 -16 -15 -35 -4 -19 -11 -35 -16 -35 -5 0 -13 -12 -16 -27 -4 -16
-18 -50 -30 -77 -13 -28 -24 -55 -24 -60 -1 -6 -9 -29 -20 -51 -11 -22 -19
-46 -20 -53 0 -7 -4 -20 -9 -30 -16 -33 -51 -147 -51 -168 0 -11 -5 -25 -10
-30 -6 -6 -15 -74 -20 -152 -13 -203 -29 -300 -56 -344 -13 -21 -24 -40 -24
-43 0 -9 -41 -65 -72 -100 -16 -16 -28 -34 -28 -40 0 -5 -22 -33 -48 -61 -85
-92 -158 -195 -202 -284 -12 -25 -26 -52 -30 -62 -5 -9 -12 -40 -16 -70 -4
-29 -11 -58 -16 -65 -15 -19 -52 -265 -69 -463 -11 -128 -5 -412 10 -481 6
-24 15 -87 20 -139 17 -149 28 -219 39 -233 5 -6 13 -34 17 -62 7 -54 31 -139
46 -167 5 -10 9 -26 9 -35 0 -10 7 -31 15 -47 8 -15 15 -33 15 -38 0 -15 36
-98 100 -228 54 -110 104 -194 130 -220 3 -3 20 -26 38 -53 l34 -47 -23 -18
c-22 -19 -33 -66 -60 -277 -6 -44 -14 -84 -20 -91 -5 -6 -13 -37 -18 -70 -18
-111 -33 -179 -42 -190 -5 -6 -11 -37 -15 -70 -4 -32 -10 -64 -15 -69 -4 -6
-11 -31 -15 -55 -4 -25 -11 -50 -15 -56 -5 -6 -12 -33 -16 -60 -3 -26 -12 -59
-20 -74 -7 -14 -13 -42 -13 -62 0 -20 -4 -39 -9 -42 -4 -3 -11 -28 -15 -55 -4
-28 -11 -53 -16 -56 -5 -3 -12 -31 -16 -63 -3 -31 -10 -61 -14 -67 -8 -10 -19
-55 -43 -180 -7 -33 -16 -66 -20 -73 -5 -7 -12 -37 -17 -65 -20 -139 -33 -204
-41 -222 -5 -11 -13 -63 -19 -115 -6 -52 -14 -126 -20 -165 -12 -92 -12 -487
1 -545 5 -25 14 -75 20 -113 6 -37 15 -67 20 -67 5 0 9 -12 9 -27 1 -16 9 -46
20 -68 11 -22 19 -46 20 -52 0 -7 5 -13 10 -13 6 0 10 -6 10 -13 0 -13 34 -81
51 -101 39 -46 49 -60 49 -67 0 -10 160 -169 171 -169 4 0 14 -6 21 -13 22
-20 70 -51 113 -72 22 -11 46 -26 53 -32 7 -7 19 -13 26 -13 7 0 33 -11 58
-24 25 -13 60 -27 79 -31 19 -4 40 -12 47 -18 12 -10 44 -18 152 -39 30 -6 60
-15 67 -20 6 -5 51 -13 100 -18 48 -5 124 -14 168 -20 195 -26 240 -30 405
-35 96 -4 189 -11 205 -16 17 -5 77 -13 135 -18 104 -9 179 -23 213 -42 9 -5
39 -12 65 -16 26 -3 52 -9 57 -14 18 -14 125 -31 219 -36 85 -4 143 5 221 37
11 4 54 17 95 29 41 13 83 27 92 32 10 5 28 9 40 9 13 0 36 7 51 15 15 8 49
19 75 24 26 6 70 15 97 21 28 5 57 13 65 17 8 4 49 13 90 20 41 7 118 21 170
31 130 23 471 24 585 0 105 -21 163 -37 202 -54 17 -8 38 -14 46 -14 9 0 19
-5 22 -10 3 -6 13 -10 22 -10 9 0 34 -9 57 -19 83 -39 114 -51 130 -51 9 0 16
-4 16 -10 0 -5 5 -10 11 -10 7 0 46 -16 88 -36 75 -35 99 -46 176 -80 22 -9
52 -23 67 -31 14 -7 33 -13 41 -13 9 0 17 -3 19 -7 3 -7 66 -37 148 -70 19 -8
43 -18 52 -23 10 -6 26 -10 36 -10 9 0 27 -6 38 -14 11 -8 37 -18 59 -22 21
-4 50 -13 64 -20 14 -8 37 -14 51 -14 15 0 31 -5 38 -12 15 -15 290 -23 372
-10 108 18 174 33 185 43 5 5 25 9 45 9 19 0 47 7 62 14 16 8 48 18 73 22 25
3 48 10 51 15 3 5 21 9 41 9 19 0 49 7 66 15 18 8 73 19 122 25 50 6 128 15
175 20 47 6 96 14 110 19 14 5 65 12 114 15 49 4 94 10 100 15 6 5 35 12 63
16 29 4 55 11 59 16 3 5 17 9 32 9 15 0 36 6 47 14 11 7 32 16 47 20 40 9 138
70 187 116 44 42 56 43 121 19 14 -5 61 -13 105 -18 125 -14 228 -31 246 -41
9 -4 54 -12 100 -15 46 -4 92 -12 102 -17 24 -12 211 -31 317 -32 89 0 247 19
265 33 5 5 32 11 59 15 27 3 54 10 60 15 6 4 45 19 86 31 41 12 80 26 85 29 6
4 43 18 83 31 39 13 72 28 72 32 0 4 9 8 20 8 11 0 37 9 57 20 21 11 46 20 55
20 10 0 18 5 18 10 0 6 8 10 18 10 10 0 26 6 37 13 11 8 48 24 83 37 34 12 65
27 68 31 3 5 12 9 20 9 13 0 41 11 129 50 82 37 115 50 123 50 8 0 58 21 93
40 9 5 33 12 53 15 20 4 38 11 41 15 3 5 23 11 45 15 22 4 42 11 46 16 3 5 19
9 36 9 16 0 42 6 56 14 15 8 56 20 92 26 36 7 101 19 145 28 112 21 391 21
510 -1 50 -9 128 -22 175 -28 47 -7 90 -16 97 -21 6 -5 42 -13 80 -18 84 -11
203 -34 223 -43 8 -3 85 -11 170 -16 177 -11 406 0 476 24 25 8 53 15 64 15
10 0 22 5 25 10 14 23 119 0 145 -31 3 -4 16 -10 30 -14 14 -4 41 -18 60 -30
19 -12 46 -26 60 -30 14 -4 27 -11 30 -14 7 -10 126 -81 134 -81 4 0 22 -11
40 -25 18 -14 37 -25 43 -25 5 0 20 -9 33 -20 13 -11 29 -20 36 -20 7 0 14 -3
16 -7 2 -5 21 -17 43 -28 22 -11 59 -32 81 -47 23 -16 47 -28 52 -28 6 0 37
-13 69 -30 88 -44 150 -70 170 -70 11 0 23 -4 29 -9 11 -12 75 -29 159 -43 69
-11 311 -4 328 10 7 5 28 13 47 17 19 4 41 11 50 16 8 4 40 20 70 34 104 48
329 185 338 207 2 5 9 8 16 8 6 0 26 14 44 30 18 17 37 30 41 30 13 0 55 35
141 120 96 95 140 147 140 167 0 7 4 13 8 13 5 0 19 21 32 47 13 27 30 54 37
61 7 7 13 22 13 31 0 10 7 24 15 31 8 7 15 21 15 31 0 10 4 20 9 24 5 3 12 18
16 34 3 16 13 35 21 42 8 6 14 20 14 30 0 11 4 27 10 37 16 30 50 111 50 121
0 5 8 24 17 43 27 54 30 62 38 96 3 18 10 32 15 32 5 0 12 10 15 23 7 24 96
209 105 217 8 8 29 42 42 70 7 14 18 31 25 38 7 7 13 19 13 27 0 7 4 15 8 17
4 2 26 32 47 68 21 36 52 83 67 104 15 21 28 45 28 52 0 7 4 14 8 16 11 4 82
123 82 136 0 6 4 12 8 14 10 4 82 123 82 136 0 5 7 15 15 22 8 7 15 21 15 31
0 11 4 19 9 19 5 0 12 14 16 30 4 17 10 30 15 30 5 0 12 10 15 22 4 13 20 50
36 84 16 33 29 67 29 75 0 8 4 19 9 24 10 13 37 98 47 150 3 22 11 45 16 51
13 18 33 187 33 284 -1 105 -14 237 -28 270 -6 14 -16 54 -23 90 -7 36 -19 92
-29 125 -9 33 -21 84 -26 114 -5 30 -13 59 -17 65 -9 14 -30 113 -43 200 -5
38 -14 77 -19 87 -15 27 -12 124 4 156 23 45 46 100 46 111 0 6 8 25 17 44 9
18 20 41 25 51 25 51 53 103 58 107 11 10 80 116 80 123 0 5 6 15 13 22 22 26
32 39 102 145 39 58 73 107 78 108 4 2 7 10 7 17 0 8 6 20 13 27 7 7 36 49 64
93 29 44 57 85 63 92 5 7 10 15 10 19 0 3 22 43 50 89 27 46 50 88 50 94 0 6
5 11 10 11 6 0 10 9 10 19 0 11 7 26 15 35 8 8 15 18 15 23 0 4 14 35 30 67
17 32 30 63 30 68 0 9 34 90 50 119 5 9 12 33 15 53 4 20 11 38 15 41 5 3 12
31 16 63 3 31 10 62 14 67 16 22 21 75 21 231 -1 115 -5 174 -14 197 -8 18
-17 58 -21 90 -4 31 -12 59 -17 62 -5 4 -9 16 -9 27 0 20 -30 124 -50 173 -14
35 -40 123 -40 137 0 7 -6 25 -14 40 -8 15 -17 42 -21 60 -3 18 -10 42 -15 53
-15 35 -31 107 -41 179 -6 39 -14 75 -19 81 -4 5 -12 38 -16 73 -3 34 -11 65
-15 68 -5 3 -9 21 -9 41 0 19 -6 49 -14 66 -8 18 -22 57 -31 87 -18 58 -53
142 -64 150 -6 5 -23 35 -64 115 -12 22 -24 42 -27 45 -4 3 -10 17 -14 33 -3
15 -11 27 -16 27 -6 0 -10 8 -10 19 0 17 -117 258 -138 285 -5 6 -13 21 -17
34 -7 23 -61 107 -132 204 -28 39 -77 84 -168 156 -55 44 -175 89 -310 117
-118 24 -457 10 -570 -24 -16 -5 -52 -12 -79 -15 -27 -3 -54 -10 -60 -15 -6
-5 -38 -14 -71 -19 -76 -13 -144 -30 -170 -41 -11 -5 -47 -12 -79 -16 -33 -3
-64 -9 -70 -14 -17 -13 -272 -57 -406 -71 -106 -10 -285 -1 -319 17 -14 7 -38
13 -54 13 -15 0 -35 4 -45 10 -37 20 -112 50 -126 50 -9 0 -16 4 -16 8 0 8
-92 52 -110 52 -6 0 -10 4 -10 9 0 5 -13 12 -30 16 -16 4 -30 11 -30 16 0 5
-6 9 -13 9 -7 0 -29 9 -50 20 -20 11 -43 20 -51 20 -8 0 -27 6 -43 14 -53 26
-98 37 -173 42 -109 8 -329 -21 -354 -46 -6 -6 -17 -10 -25 -10 -41 0 -224
-112 -282 -173 -48 -50 -93 -132 -94 -172 -1 -32 -5 -41 -21 -43 -12 -2 -27 4
-34 13 -7 8 -23 15 -35 15 -13 0 -36 7 -51 15 -16 8 -37 15 -46 15 -10 0 -18
4 -18 9 0 5 -17 11 -39 15 -21 3 -51 13 -67 21 -16 8 -39 15 -51 15 -12 0 -24
4 -27 9 -3 5 -31 12 -61 16 -30 3 -55 10 -55 15 0 4 -17 11 -37 14 -68 12
-178 38 -195 47 -9 5 -47 11 -85 15 -37 4 -73 11 -80 16 -20 16 -187 28 -531
38 -184 6 -341 14 -351 19 -10 6 -53 13 -97 17 -43 4 -83 10 -89 14 -5 4 -30
11 -55 15 -25 4 -49 11 -55 15 -5 4 -32 11 -60 15 -27 4 -54 11 -60 15 -10 8
-73 23 -180 42 -33 5 -65 14 -71 19 -6 5 -39 13 -75 19 -59 10 -162 28 -269
50 -25 5 -67 9 -93 9 -27 1 -57 6 -68 11 -21 12 -127 25 -314 40 -66 6 -138
15 -159 21 -39 11 -142 18 -576 38 -124 6 -299 16 -390 21 -91 6 -358 10 -594
10 l-428 -1 -33 30 c-19 17 -46 33 -62 37 -15 4 -33 11 -40 16 -7 5 -61 14
-120 19 -59 5 -153 14 -208 19 -118 11 -985 10 -1100 -1z m950 -39 c271 -18
421 -31 440 -40 11 -5 31 -12 45 -15 47 -12 90 -36 90 -50 0 -7 6 -15 13 -17
19 -7 15 -146 -6 -183 -9 -16 -17 -34 -17 -38 0 -14 -52 -79 -95 -120 -22 -21
-65 -50 -95 -64 -53 -25 -61 -26 -219 -25 -90 1 -168 5 -175 10 -18 12 -282
34 -411 34 -121 1 -276 -17 -285 -32 -3 -4 -22 -11 -43 -15 -20 -4 -37 -11
-37 -16 0 -5 -7 -9 -15 -9 -19 0 -149 -69 -153 -81 -2 -5 -9 -9 -16 -9 -7 0
-24 -9 -37 -20 -13 -11 -28 -23 -34 -27 -126 -99 -212 -182 -326 -314 -109
-126 -115 -134 -155 -191 -21 -29 -48 -64 -61 -78 -12 -13 -23 -28 -23 -31 0
-3 -11 -19 -25 -35 -14 -16 -38 -47 -53 -69 -15 -22 -33 -46 -40 -54 -36 -38
-132 -214 -132 -243 0 -9 -4 -19 -9 -22 -5 -4 -12 -25 -16 -49 -4 -23 -11 -47
-15 -52 -9 -10 -29 -173 -37 -300 -3 -38 0 -113 6 -165 6 -52 15 -149 20 -215
5 -66 17 -169 25 -230 9 -60 21 -155 26 -209 6 -55 16 -106 23 -114 17 -21 17
-689 0 -700 -6 -4 -14 -25 -18 -47 -7 -42 -28 -110 -51 -162 -8 -17 -14 -36
-14 -42 0 -6 -4 -11 -9 -11 -5 0 -12 -11 -15 -25 -4 -14 -11 -25 -16 -25 -6 0
-10 -6 -10 -13 0 -8 -9 -25 -20 -38 -29 -36 -33 -41 -54 -73 -19 -30 -254
-266 -265 -266 -3 0 -22 -15 -42 -33 -84 -76 -121 -107 -152 -129 -61 -43
-231 -208 -493 -478 -147 -152 -205 -206 -289 -268 -38 -28 -74 -55 -80 -60
-42 -33 -91 -54 -125 -54 -31 1 -40 -4 -45 -19 -7 -22 -67 -52 -125 -63 -19
-4 -44 -11 -55 -16 -66 -28 -199 -40 -437 -40 -136 0 -249 4 -252 9 -3 4 -34
12 -68 15 -35 4 -67 11 -73 16 -5 4 -32 11 -60 15 -27 4 -54 10 -60 14 -5 4
-41 18 -80 30 -81 26 -243 103 -299 143 -114 81 -202 168 -301 296 -5 7 -15
18 -20 25 -21 23 -101 163 -140 242 -22 44 -43 82 -47 83 -4 2 -8 13 -8 25 -1
12 -9 40 -20 62 -11 22 -19 48 -20 58 0 9 -4 17 -10 17 -5 0 -10 15 -10 33 0
18 -6 41 -14 52 -13 20 -29 77 -46 166 -5 26 -13 55 -19 65 -6 11 -15 60 -21
109 -6 50 -18 149 -27 220 -23 171 -22 475 0 645 9 69 21 161 27 205 6 44 17
94 25 112 8 17 15 45 15 61 0 17 5 34 10 37 6 3 10 14 10 23 0 20 50 121 77
156 10 13 25 34 33 46 8 12 22 30 30 40 8 10 22 28 30 40 8 12 29 37 45 56 17
18 35 39 40 46 112 141 162 226 177 298 5 25 15 119 23 210 12 160 26 248 45
281 5 9 12 33 15 53 4 20 11 39 16 42 5 3 9 15 9 27 0 12 6 33 13 47 7 14 21
48 31 75 29 78 108 255 127 285 5 8 12 23 15 33 4 9 10 17 15 17 5 0 9 7 9 15
0 8 20 44 45 81 25 36 45 68 45 72 0 4 12 21 28 37 15 17 39 48 54 70 47 69
189 210 268 265 19 14 37 28 40 31 7 9 97 49 109 49 5 0 11 6 13 13 6 16 308
17 329 1 8 -7 30 -15 49 -19 45 -9 117 -32 155 -49 17 -8 60 -28 96 -45 37
-17 72 -31 78 -31 6 0 28 -10 49 -23 41 -25 404 -205 467 -231 22 -10 52 -24
67 -32 42 -23 73 -18 103 18 23 27 26 38 21 70 -4 22 -11 47 -16 56 -5 9 -12
34 -15 55 -3 20 -10 37 -15 37 -6 0 -10 8 -10 18 0 9 -7 30 -15 46 -8 15 -15
36 -15 45 0 9 -7 27 -16 39 -8 12 -18 48 -21 79 -11 108 49 160 181 155 39 -2
75 -7 80 -11 6 -5 31 -12 56 -16 25 -4 54 -14 65 -21 11 -8 31 -14 45 -14 14
0 30 -4 36 -9 5 -5 47 -14 94 -20 66 -8 100 -7 155 3 96 19 157 35 170 45 5 5
29 12 52 16 24 4 45 11 49 16 3 5 15 9 27 9 12 0 35 7 51 15 15 8 38 15 50 15
11 0 33 6 47 14 15 7 60 24 100 36 41 12 79 26 84 31 6 4 30 11 53 15 23 4 42
10 42 15 0 5 10 9 23 9 12 0 35 7 51 15 15 8 37 15 48 15 11 0 34 6 51 14 33
15 94 30 187 47 30 5 59 14 66 20 38 31 849 58 1159 39z m1140 -129 c66 -5
221 -10 345 -11 124 -1 299 -6 390 -10 91 -5 271 -14 400 -20 129 -5 251 -15
270 -20 19 -6 82 -15 140 -20 259 -23 327 -31 350 -40 14 -6 61 -15 105 -20
111 -13 228 -34 240 -42 6 -3 44 -10 85 -13 41 -4 80 -12 87 -17 6 -5 35 -13
65 -19 29 -5 76 -14 104 -19 28 -6 67 -17 87 -25 20 -8 50 -15 66 -15 16 0 32
-4 35 -9 3 -5 27 -12 53 -16 27 -4 53 -11 59 -16 5 -4 44 -11 85 -15 41 -3 81
-10 90 -14 18 -10 137 -19 319 -25 266 -7 561 -25 579 -34 9 -5 46 -14 82 -20
35 -5 93 -17 129 -26 36 -9 92 -21 125 -27 33 -5 65 -14 70 -18 10 -8 30 -14
138 -40 23 -6 56 -17 74 -25 17 -8 40 -15 51 -15 11 0 33 -7 48 -15 16 -8 37
-15 46 -15 9 0 19 -4 22 -9 3 -5 22 -12 42 -16 20 -3 44 -10 53 -15 36 -19 85
-40 94 -40 5 0 28 -9 51 -19 78 -36 114 -51 125 -51 6 0 11 -4 11 -10 0 -5 7
-10 16 -10 19 0 107 -41 112 -52 2 -5 9 -8 15 -8 15 0 187 -87 244 -123 24
-15 47 -27 52 -27 5 0 16 -6 23 -12 7 -7 30 -22 51 -32 37 -19 221 -136 242
-153 6 -5 28 -20 50 -33 22 -13 42 -27 45 -31 3 -4 46 -37 95 -74 50 -37 92
-71 95 -74 3 -3 28 -24 55 -46 51 -40 119 -101 211 -190 29 -28 66 -77 83
-108 28 -53 31 -65 31 -152 0 -51 -4 -96 -9 -99 -5 -3 -12 -21 -15 -40 -4 -20
-13 -48 -21 -63 -8 -15 -15 -36 -15 -45 0 -10 -4 -18 -9 -18 -5 0 -13 -10 -16
-22 -13 -42 -39 -98 -46 -98 -4 0 -11 -10 -15 -22 -8 -26 -62 -117 -81 -136
-7 -7 -13 -18 -13 -23 0 -6 -6 -16 -12 -23 -7 -8 -19 -22 -26 -32 -6 -11 -35
-53 -64 -94 -76 -110 -151 -237 -194 -326 -21 -44 -44 -85 -51 -92 -7 -7 -13
-19 -13 -25 0 -12 -181 -379 -191 -387 -3 -3 -10 -16 -14 -30 -4 -14 -11 -27
-15 -30 -4 -3 -26 -37 -49 -76 -46 -78 -157 -220 -217 -277 -54 -51 -149 -119
-209 -148 -27 -13 -52 -27 -55 -30 -3 -3 -25 -11 -50 -18 -25 -7 -70 -19 -100
-28 -86 -24 -229 -32 -569 -32 -302 0 -360 -5 -315 -29 28 -14 394 -35 504
-29 216 12 351 25 363 35 6 5 32 13 57 17 25 4 50 11 55 15 6 4 25 11 43 15
17 3 32 10 32 15 0 4 11 11 25 14 34 9 151 81 194 120 61 55 145 142 168 172
76 99 143 199 143 213 0 5 6 16 13 23 18 18 99 176 169 328 17 36 34 72 38 80
10 21 37 24 56 6 20 -21 141 -22 188 -2 18 7 57 17 87 21 30 4 60 12 67 18 8
6 55 11 106 12 75 0 96 -3 110 -17 10 -10 23 -18 30 -18 23 0 145 -130 196
-209 27 -42 54 -81 60 -88 5 -7 10 -16 10 -20 0 -5 16 -32 35 -62 19 -29 35
-59 35 -67 0 -8 3 -14 8 -14 4 0 16 -17 27 -37 18 -34 20 -53 17 -225 -4 -246
-40 -579 -86 -793 -33 -153 -37 -171 -46 -186 -4 -9 -12 -38 -15 -65 -4 -27
-11 -53 -15 -59 -4 -5 -11 -30 -15 -55 -4 -25 -11 -49 -15 -55 -4 -5 -11 -32
-15 -60 -4 -27 -11 -55 -16 -61 -8 -10 -13 -30 -40 -156 -5 -26 -16 -60 -24
-75 -8 -15 -15 -41 -15 -58 0 -16 -7 -48 -15 -70 -8 -22 -14 -56 -15 -75 0
-20 -4 -40 -9 -45 -5 -6 -12 -120 -15 -255 -4 -135 -9 -270 -12 -300 -3 -30
-12 -154 -19 -275 -15 -222 -28 -333 -45 -370 -5 -11 -14 -38 -19 -60 -14 -56
-35 -125 -49 -158 -7 -16 -12 -34 -12 -40 0 -7 -7 -21 -15 -31 -8 -11 -15 -30
-15 -42 0 -13 -4 -25 -9 -29 -5 -3 -12 -19 -16 -35 -4 -17 -11 -30 -16 -30 -5
0 -9 -5 -9 -11 0 -10 -61 -147 -80 -179 -5 -8 -19 -33 -30 -55 -32 -58 -164
-251 -217 -315 -88 -107 -259 -275 -312 -304 -9 -5 -22 -16 -29 -23 -7 -7 -19
-13 -25 -13 -7 0 -24 -11 -39 -25 -15 -14 -30 -25 -34 -25 -4 0 -28 -13 -53
-28 -25 -16 -58 -32 -73 -36 -16 -3 -28 -11 -28 -16 0 -5 -16 -12 -35 -16 -19
-3 -35 -10 -35 -15 0 -5 -8 -9 -17 -9 -10 0 -30 -6 -45 -14 -14 -8 -46 -17
-70 -21 -24 -4 -47 -11 -53 -15 -18 -14 -128 -31 -260 -41 -147 -12 -353 0
-475 26 -41 9 -109 21 -150 26 -41 5 -84 14 -95 20 -25 12 -105 27 -220 40
-49 5 -99 15 -110 21 -29 16 -337 23 -405 9 -30 -7 -91 -18 -135 -26 -122 -21
-178 -34 -189 -45 -6 -6 -20 -10 -33 -10 -24 0 -135 -34 -165 -51 -10 -5 -25
-9 -33 -9 -8 0 -32 -9 -52 -20 -21 -11 -45 -20 -55 -20 -9 0 -19 -4 -22 -9 -3
-5 -22 -12 -41 -15 -19 -4 -35 -11 -35 -16 0 -4 -14 -12 -32 -15 -18 -4 -39
-11 -48 -15 -8 -4 -33 -15 -55 -24 -22 -10 -57 -26 -77 -37 -20 -10 -43 -19
-51 -19 -8 0 -41 -13 -73 -30 -32 -16 -64 -30 -71 -30 -7 0 -33 -11 -59 -25
-26 -14 -53 -25 -61 -25 -7 0 -30 -9 -50 -20 -21 -11 -45 -20 -55 -20 -9 0
-20 -4 -23 -10 -3 -5 -17 -10 -30 -10 -13 0 -30 -6 -37 -14 -8 -7 -33 -17 -56
-21 -23 -4 -44 -10 -47 -15 -3 -4 -22 -11 -42 -15 -21 -4 -42 -10 -48 -13 -5
-4 -32 -12 -60 -19 -27 -6 -70 -17 -95 -23 -58 -15 -434 -8 -470 9 -14 6 -59
15 -100 21 -41 5 -113 16 -160 25 -47 9 -132 23 -190 31 -58 8 -122 17 -142
20 -39 6 -48 23 -24 43 8 7 18 26 21 42 4 16 11 31 16 34 12 8 12 120 0 143
-21 37 -41 86 -41 96 0 6 -20 52 -44 101 -25 50 -54 113 -66 140 -12 28 -25
59 -30 70 -5 11 -12 39 -15 62 -4 24 -11 45 -16 49 -12 7 -12 191 0 198 5 3
12 34 16 68 4 34 11 69 16 78 16 29 37 85 43 113 4 16 18 46 31 68 14 21 25
45 25 52 0 7 5 18 10 23 6 6 18 26 28 45 10 19 32 59 49 89 16 30 46 85 66
122 20 37 47 85 60 105 21 35 80 155 112 228 38 86 45 104 45 118 0 9 4 18 9
22 5 3 13 34 16 70 4 36 11 68 16 71 5 3 9 28 9 55 0 78 8 86 90 88 39 1 92 6
118 12 43 10 151 25 338 48 40 5 80 13 90 19 11 5 57 12 103 16 46 4 89 10 95
14 12 8 106 26 208 42 37 5 75 14 85 19 10 6 43 15 73 20 99 18 153 31 164 40
6 4 35 11 64 14 29 3 58 10 65 14 11 7 52 18 166 43 24 6 49 14 55 20 7 5 32
12 56 16 25 4 50 10 55 14 6 4 29 11 52 15 24 4 45 10 48 15 3 5 24 11 48 15
23 4 47 11 52 15 6 4 26 11 45 15 19 4 40 11 45 15 6 4 29 11 53 15 23 4 42
10 42 15 0 4 17 11 38 15 48 9 134 36 148 47 6 4 32 10 56 12 25 3 54 9 64 15
23 12 118 41 136 41 7 1 31 9 53 20 22 11 45 19 52 20 21 0 184 89 222 120 59
50 89 82 108 117 10 18 21 33 25 33 5 0 8 5 8 11 0 7 10 33 21 58 33 70 37 81
50 146 15 74 16 372 1 510 -5 55 -15 262 -22 460 -6 198 -16 387 -21 420 -6
33 -16 103 -24 155 -17 119 -34 202 -45 215 -4 6 -11 31 -14 58 -4 26 -11 47
-15 47 -5 0 -12 15 -15 34 -4 19 -20 61 -36 93 -16 32 -30 62 -30 67 0 11 -87
142 -120 181 -43 50 -147 155 -154 155 -3 0 -28 15 -55 34 -43 31 -125 66
-152 66 -6 0 -17 7 -25 15 -9 8 -33 15 -54 15 -21 0 -51 5 -67 12 -20 9 -158
14 -468 19 -410 6 -596 19 -631 41 -6 4 -30 10 -53 14 -23 4 -44 11 -47 15 -3
5 -15 9 -27 9 -12 1 -40 9 -62 20 -22 11 -44 19 -48 20 -10 0 -118 50 -212 97
-75 38 -129 67 -222 123 -32 19 -66 40 -75 45 -122 72 -229 139 -234 146 -3 5
-12 9 -20 9 -9 0 -30 11 -47 24 -18 13 -42 27 -54 31 -13 3 -23 10 -23 15 0 4
-12 13 -27 19 -16 6 -64 31 -108 56 -44 24 -105 57 -135 72 -30 16 -59 32 -65
36 -5 4 -46 31 -90 59 -44 29 -82 54 -85 57 -3 4 -36 28 -75 54 -38 26 -81 56
-95 66 -28 21 -176 128 -210 151 -12 8 -30 22 -40 31 -10 8 -35 24 -54 34 -20
11 -36 23 -36 27 0 5 -6 8 -13 8 -7 0 -29 12 -48 26 -19 14 -54 36 -79 48 -25
13 -72 38 -105 55 -33 17 -65 31 -72 31 -6 0 -26 8 -45 17 -60 30 -68 33 -81
33 -8 0 -44 9 -81 21 -60 19 -85 21 -265 18 -128 -3 -203 -8 -212 -15 -8 -7
-38 -15 -66 -19 -29 -4 -55 -11 -59 -16 -3 -5 -18 -9 -34 -9 -16 0 -35 -7 -44
-15 -8 -8 -20 -15 -27 -15 -19 0 -159 -70 -159 -80 0 -5 -10 -12 -22 -16 -29
-9 -128 -109 -128 -129 0 -8 -4 -15 -9 -15 -13 0 -51 -108 -51 -148 -1 -21 -7
-48 -15 -62 -8 -14 -14 -35 -15 -48 0 -12 -4 -30 -9 -40 -24 -43 -41 -87 -47
-118 -3 -18 -12 -38 -20 -45 -8 -6 -14 -16 -14 -22 0 -10 -49 -119 -72 -162
-6 -11 -22 -41 -35 -67 -13 -26 -28 -50 -33 -53 -6 -3 -10 -15 -10 -26 0 -10
-4 -19 -10 -19 -5 0 -10 -4 -10 -9 0 -5 -16 -33 -35 -62 -19 -30 -35 -59 -35
-66 0 -7 -4 -13 -9 -13 -5 0 -13 -10 -17 -22 -3 -12 -11 -26 -16 -32 -5 -6
-38 -56 -73 -111 -80 -124 -87 -135 -101 -149 -6 -6 -13 -16 -15 -21 -2 -6
-35 -57 -74 -114 -38 -56 -77 -113 -85 -126 -31 -47 -155 -230 -160 -235 -3
-3 -33 -39 -67 -80 -33 -42 -79 -93 -102 -113 -55 -50 -145 -107 -169 -107
-10 0 -27 -7 -38 -15 -10 -8 -29 -15 -42 -15 -13 0 -32 -4 -42 -10 -26 -14
-30 5 -19 86 5 38 12 98 15 134 6 72 -11 361 -27 455 -6 33 -17 114 -24 180
-8 66 -21 165 -30 220 -9 55 -20 156 -26 225 -12 148 -6 558 9 586 6 10 19 46
28 79 26 90 81 201 143 286 31 42 63 86 71 98 13 20 26 37 58 76 4 6 19 25 32
44 14 19 32 42 40 51 8 8 26 31 40 49 84 113 377 421 401 421 4 0 27 16 51 35
59 48 57 47 113 75 28 14 52 28 53 33 2 4 8 7 14 7 5 0 24 6 41 13 129 56 273
72 501 56 89 -6 179 -16 201 -22 25 -7 117 -12 240 -12 l200 0 55 34 c91 57
200 174 200 216 0 8 4 16 9 19 13 8 24 81 23 151 l-1 60 187 -3 c103 -1 241
-6 307 -11z m5709 -240 c3 -5 23 -12 43 -15 21 -4 52 -13 68 -21 17 -7 48 -21
70 -30 48 -20 204 -94 225 -106 15 -9 38 -20 100 -47 19 -8 43 -19 52 -23 9
-5 36 -12 60 -15 24 -4 49 -12 57 -18 20 -16 353 -21 422 -6 30 6 90 16 134
21 44 6 87 13 95 16 21 9 124 32 194 43 33 6 64 14 70 19 6 5 34 12 61 16 55
7 83 14 163 40 30 9 84 20 120 25 37 5 114 16 172 25 213 31 235 31 425 -6
111 -22 140 -30 143 -39 2 -6 9 -10 15 -10 15 -1 71 -28 112 -54 35 -23 165
-151 165 -163 0 -4 14 -23 30 -42 17 -18 30 -40 30 -47 0 -8 4 -14 8 -14 5 0
33 -48 62 -107 30 -60 57 -110 61 -113 4 -3 11 -18 14 -33 4 -15 11 -27 16
-27 5 0 9 -8 9 -18 0 -10 7 -27 15 -38 8 -10 15 -26 15 -35 0 -9 6 -22 14 -28
8 -7 17 -24 21 -39 4 -15 10 -29 13 -32 6 -5 42 -70 114 -210 15 -30 28 -63
28 -72 0 -9 5 -20 10 -23 6 -3 10 -16 10 -28 0 -12 7 -34 14 -49 8 -15 18 -53
21 -85 4 -32 11 -62 15 -68 4 -5 10 -32 14 -59 3 -27 10 -54 15 -60 4 -6 11
-41 14 -79 2 -37 9 -73 15 -80 5 -6 14 -32 20 -57 24 -103 34 -135 43 -146 5
-6 12 -32 15 -58 4 -26 11 -49 15 -52 5 -3 9 -13 9 -22 0 -9 6 -29 14 -44 8
-14 17 -45 21 -67 4 -23 10 -43 15 -46 4 -3 11 -26 15 -52 4 -27 10 -52 15
-58 4 -5 10 -35 14 -65 4 -30 13 -61 19 -69 17 -21 17 -352 -1 -374 -7 -8 -17
-37 -22 -64 -14 -77 -30 -136 -45 -170 -8 -17 -15 -36 -15 -41 0 -6 -6 -23
-14 -39 -8 -15 -19 -39 -24 -53 -15 -38 -86 -184 -92 -190 -5 -5 -16 -25 -67
-120 -27 -51 -46 -83 -53 -90 -3 -3 -11 -16 -18 -30 -18 -36 -31 -56 -88 -140
-28 -41 -81 -120 -118 -175 -38 -55 -72 -101 -77 -103 -5 -2 -9 -9 -9 -15 0
-9 -66 -114 -81 -127 -5 -5 -58 -95 -92 -157 -9 -17 -17 -38 -17 -47 0 -9 -4
-16 -10 -16 -5 0 -12 -16 -16 -35 -3 -19 -10 -38 -15 -41 -5 -3 -9 -14 -9 -25
0 -10 -9 -36 -20 -56 -11 -21 -20 -46 -20 -56 0 -28 -31 -117 -41 -117 -5 0
-9 -7 -9 -16 0 -9 -16 -50 -35 -90 -19 -40 -35 -77 -35 -83 0 -6 -3 -11 -7
-11 -5 0 -20 -22 -35 -49 -27 -48 -142 -171 -159 -171 -5 0 -27 -11 -48 -25
-22 -13 -52 -27 -68 -31 -15 -4 -32 -10 -38 -14 -5 -4 -29 -11 -52 -15 -24 -4
-45 -11 -49 -16 -3 -5 -26 -9 -52 -9 -26 -1 -67 -6 -92 -11 -25 -6 -106 -17
-180 -24 -156 -16 -254 -31 -278 -44 -9 -4 -35 -11 -58 -14 -22 -4 -53 -13
-70 -21 -16 -7 -48 -22 -71 -32 -24 -10 -43 -21 -43 -25 0 -4 -13 -10 -30 -14
-16 -4 -30 -10 -30 -15 0 -4 -11 -11 -25 -14 -14 -4 -25 -11 -25 -16 0 -6 -7
-10 -15 -10 -8 0 -40 -13 -70 -30 -30 -17 -60 -30 -66 -30 -5 0 -29 -8 -52
-19 -23 -10 -63 -21 -89 -24 l-48 -5 0 32 c0 55 31 259 46 304 8 23 14 57 14
75 0 18 4 37 9 42 8 9 14 31 42 155 6 25 17 59 25 77 8 17 14 45 14 61 0 17 4
33 9 36 5 4 12 29 16 56 4 27 11 52 15 55 5 3 12 31 16 63 3 31 10 62 15 68
10 12 24 73 41 169 6 33 14 69 19 80 22 49 57 332 69 560 5 99 14 199 20 223
13 54 13 129 0 137 -5 3 -10 16 -10 27 0 11 -13 43 -30 70 -16 26 -30 51 -30
54 0 7 -71 126 -79 134 -3 3 -17 26 -31 51 -34 64 -64 100 -145 181 -86 86
-91 90 -135 110 -55 25 -127 29 -210 13 -41 -9 -100 -20 -130 -26 -30 -5 -60
-15 -67 -21 -7 -5 -41 -13 -75 -15 -54 -4 -67 -2 -90 16 -26 21 -26 22 -10 51
9 17 20 30 25 30 4 0 7 7 7 16 0 9 13 38 28 63 16 25 32 55 36 66 6 18 153
244 165 255 25 22 201 311 201 329 0 6 5 11 10 11 6 0 10 5 10 11 0 10 22 63
50 119 4 9 11 31 15 50 4 19 12 41 19 49 18 23 15 254 -4 277 -9 11 -22 32
-30 47 -25 49 -325 326 -430 397 -12 8 -32 23 -43 34 -12 10 -33 26 -47 35
-28 18 -34 22 -69 51 -13 11 -28 20 -33 20 -5 0 -15 6 -22 13 -8 6 -24 19 -36
27 -12 8 -28 21 -36 28 -7 6 -17 12 -23 12 -5 0 -16 6 -23 13 -16 16 -91 62
-128 78 -14 6 -32 16 -40 24 -16 14 -136 78 -275 147 -73 37 -111 55 -246 117
-25 11 -51 21 -57 21 -6 0 -23 7 -39 14 -15 8 -36 18 -47 21 -16 5 -18 12 -12
53 3 26 11 49 16 50 6 2 10 9 10 16 0 22 71 103 132 149 40 31 164 97 182 97
6 0 24 7 39 15 16 8 52 17 80 21 29 4 59 10 67 15 20 11 247 11 254 0z m-6199
-1021 c6 -4 29 -11 52 -15 24 -4 45 -11 49 -16 3 -5 14 -9 25 -9 20 0 64 -17
169 -68 54 -25 270 -150 280 -161 9 -10 69 -51 75 -51 6 0 7 -1 65 -50 19 -16
38 -30 41 -30 3 0 15 -8 27 -17 11 -10 30 -25 42 -33 12 -8 28 -21 36 -27 7
-7 15 -13 18 -13 5 0 67 -44 111 -78 46 -36 261 -172 272 -172 7 0 13 -4 13
-10 0 -5 11 -12 25 -16 14 -3 25 -10 25 -14 0 -5 14 -11 30 -15 17 -4 30 -10
30 -14 0 -4 26 -19 58 -34 31 -16 80 -41 107 -58 28 -16 61 -35 75 -42 14 -6
30 -15 35 -20 29 -23 118 -77 128 -77 7 0 30 -14 51 -30 22 -17 46 -30 53 -30
7 0 13 -4 13 -8 0 -5 19 -19 43 -31 72 -38 101 -55 115 -68 7 -7 20 -13 28
-13 8 0 14 -4 14 -9 0 -5 14 -12 30 -16 17 -4 30 -10 30 -14 0 -4 25 -18 55
-32 30 -13 55 -27 55 -31 0 -5 6 -8 13 -8 6 0 39 -14 72 -30 33 -16 67 -30 75
-30 9 0 24 -6 35 -14 11 -7 47 -21 80 -30 33 -10 80 -25 105 -34 25 -9 72 -20
105 -24 33 -4 87 -12 120 -17 36 -6 217 -10 450 -9 253 1 397 -2 410 -9 11 -6
50 -13 87 -17 37 -4 80 -13 95 -20 15 -8 42 -20 58 -26 53 -21 115 -54 115
-62 0 -3 9 -9 19 -13 25 -8 136 -119 169 -170 15 -22 29 -42 32 -45 20 -17
110 -188 110 -208 0 -7 4 -20 10 -30 20 -37 39 -89 45 -126 3 -21 10 -46 15
-55 10 -19 37 -172 46 -261 4 -36 11 -71 17 -77 5 -8 13 -165 17 -380 5 -203
16 -456 25 -563 9 -107 17 -208 18 -225 1 -47 -23 -237 -34 -256 -5 -10 -9
-26 -9 -36 0 -33 -70 -154 -118 -205 -43 -46 -196 -148 -221 -148 -6 0 -19 -4
-29 -9 -59 -29 -92 -41 -129 -46 -24 -4 -45 -11 -48 -15 -3 -5 -26 -12 -50
-16 -25 -3 -48 -10 -51 -15 -3 -5 -20 -9 -37 -9 -18 -1 -50 -9 -72 -20 -22
-11 -52 -19 -67 -20 -15 0 -29 -4 -32 -9 -4 -5 -24 -12 -46 -16 -22 -4 -42
-10 -45 -15 -3 -4 -21 -11 -41 -15 -20 -3 -44 -10 -53 -14 -25 -13 -117 -41
-132 -41 -8 0 -26 -6 -41 -14 -14 -8 -45 -17 -67 -21 -23 -4 -43 -11 -47 -16
-3 -5 -19 -9 -36 -9 -16 0 -44 -6 -61 -14 -18 -8 -52 -19 -77 -25 -25 -5 -72
-17 -105 -26 -33 -9 -85 -21 -115 -27 -30 -6 -60 -15 -66 -20 -7 -5 -36 -11
-65 -15 -30 -3 -58 -9 -64 -13 -5 -4 -34 -11 -62 -15 -29 -4 -55 -10 -58 -15
-3 -4 -35 -11 -72 -15 -36 -4 -74 -11 -82 -15 -19 -10 -118 -27 -226 -40 -44
-6 -91 -14 -105 -20 -14 -5 -65 -14 -115 -20 -177 -20 -250 -30 -265 -37 -17
-7 -191 -28 -360 -43 -63 -6 -125 -15 -138 -20 -13 -6 -58 -10 -100 -11 -42 0
-108 -5 -147 -10 -38 -5 -151 -16 -250 -24 -99 -8 -254 -22 -345 -30 -91 -8
-273 -21 -405 -28 -133 -7 -246 -16 -252 -20 -17 -11 -485 -9 -535 2 -64 14
-490 22 -593 12 -98 -10 -189 -27 -220 -41 -11 -4 -38 -11 -59 -14 -22 -3 -42
-9 -45 -14 -3 -5 -22 -13 -41 -17 -19 -4 -41 -11 -50 -15 -14 -7 -41 -18 -125
-54 -72 -31 -102 -45 -205 -95 -58 -28 -111 -51 -117 -51 -7 0 -13 -4 -13 -10
0 -5 -5 -10 -12 -10 -6 0 -39 -13 -72 -29 -34 -16 -79 -36 -101 -46 -22 -9
-53 -23 -70 -31 -16 -8 -45 -17 -63 -20 -18 -4 -35 -11 -38 -15 -3 -5 -13 -9
-22 -9 -9 0 -30 -8 -47 -17 -38 -20 -327 -25 -347 -5 -7 7 -18 12 -26 12 -19
0 -215 89 -247 112 -97 71 -163 126 -229 193 -92 92 -156 163 -156 174 0 3
-12 20 -27 37 -16 17 -39 52 -53 77 -13 26 -28 47 -32 47 -5 0 -8 8 -8 19 0
10 -7 24 -15 31 -8 7 -15 16 -15 21 0 5 -16 42 -35 83 -19 41 -35 87 -35 101
0 14 -4 25 -9 25 -5 0 -12 24 -15 52 -4 29 -11 57 -15 63 -5 5 -11 38 -14 73
-3 34 -10 68 -16 75 -5 7 -13 32 -17 55 -4 23 -11 45 -15 48 -5 3 -9 17 -9 32
0 15 -6 37 -14 48 -8 11 -17 38 -21 60 -4 21 -13 56 -21 77 -8 20 -14 39 -14
42 0 2 21 14 48 26 80 39 183 109 281 193 104 89 110 95 279 275 137 145 280
289 298 299 7 4 30 23 51 42 40 37 140 122 210 178 70 56 198 178 268 254 72
78 87 98 115 143 13 22 27 42 30 45 11 9 50 91 50 105 0 8 4 15 10 15 5 0 12
16 16 35 3 19 10 38 15 40 4 3 11 33 15 66 7 64 24 85 57 67 20 -11 94 -2 103
13 3 5 16 9 29 9 13 0 30 6 37 14 8 7 24 17 36 20 12 4 22 11 22 16 0 5 8 11
18 14 52 17 209 194 325 366 42 63 99 148 127 188 27 40 50 75 50 78 0 5 55
82 80 111 5 7 10 15 10 19 0 3 14 23 30 44 17 21 30 41 30 44 0 3 20 35 45 72
25 36 45 69 45 73 0 4 9 18 20 31 11 13 20 29 20 37 0 7 3 13 8 13 10 0 108
168 153 263 13 26 26 47 31 47 4 0 8 6 8 13 0 7 16 44 35 81 19 38 35 76 35
86 0 10 7 23 15 30 8 7 15 23 15 36 0 12 4 25 9 28 5 3 12 22 15 41 4 19 11
35 16 35 5 0 12 20 16 45 3 25 10 47 14 50 5 3 11 29 15 58 8 65 33 134 60
166 46 56 128 131 144 131 4 0 18 9 31 20 13 11 29 20 36 20 7 0 34 11 59 24
25 14 66 28 91 32 24 3 46 10 49 14 3 5 29 11 58 15 28 4 57 11 63 16 21 17
387 16 409 -1z m9075 -3826 c4 -49 15 -118 24 -154 9 -36 21 -87 26 -115 5
-27 14 -59 19 -70 12 -24 29 -97 42 -179 5 -33 15 -66 22 -74 9 -11 12 -78 12
-251 0 -206 -2 -240 -18 -266 -9 -16 -17 -44 -17 -62 0 -17 -4 -35 -10 -38 -5
-3 -10 -16 -10 -28 0 -12 -9 -39 -20 -60 -11 -20 -20 -43 -20 -51 0 -8 -8 -29
-17 -48 -9 -18 -22 -45 -30 -60 -7 -14 -13 -33 -13 -41 0 -9 -4 -17 -8 -19 -5
-1 -22 -30 -38 -63 -51 -101 -78 -149 -91 -163 -7 -7 -13 -19 -13 -27 0 -7 -3
-15 -7 -17 -5 -1 -19 -24 -33 -50 -13 -27 -28 -48 -32 -48 -3 0 -10 -10 -14
-22 -3 -12 -11 -26 -16 -32 -23 -27 -138 -212 -138 -222 0 -7 -4 -14 -8 -16
-24 -10 -172 -286 -240 -448 -6 -14 -20 -46 -31 -72 -12 -26 -21 -52 -21 -58
0 -5 -4 -18 -9 -28 -21 -37 -41 -86 -41 -96 0 -6 -9 -28 -20 -49 -11 -20 -20
-44 -20 -52 0 -8 -4 -15 -10 -15 -5 0 -10 -7 -10 -15 0 -8 -15 -43 -34 -77
-19 -35 -42 -79 -52 -98 -11 -19 -21 -37 -24 -40 -3 -3 -19 -25 -35 -49 -32
-47 -170 -191 -184 -191 -4 0 -21 -11 -37 -25 -16 -14 -48 -37 -71 -52 -24
-15 -43 -31 -43 -35 0 -4 -4 -8 -9 -8 -5 0 -54 -29 -108 -65 -54 -36 -141 -86
-193 -111 -52 -25 -103 -50 -113 -55 -100 -55 -423 -52 -532 5 -16 9 -38 16
-48 16 -9 0 -25 4 -35 10 -9 5 -39 19 -67 30 -60 26 -118 53 -125 60 -5 5 -42
25 -115 63 -22 12 -42 23 -45 26 -6 7 -46 30 -110 63 -25 13 -47 25 -50 29 -3
3 -25 15 -50 28 -25 13 -47 27 -50 31 -3 4 -17 13 -32 21 -42 22 -169 84 -217
106 l-43 20 67 22 c69 24 228 102 256 127 8 8 19 14 23 14 7 0 109 73 139 99
10 9 43 39 75 66 48 42 174 181 232 256 65 83 190 277 190 294 0 7 6 20 13 27
19 20 131 254 142 298 6 22 22 62 46 111 4 9 11 33 14 53 4 20 11 39 16 41 4
3 11 27 15 53 3 26 11 52 16 59 17 21 47 226 48 328 0 39 4 86 9 105 6 19 12
145 15 280 2 135 5 246 5 247 1 0 29 4 64 8 34 4 81 16 104 26 23 10 46 19 50
19 5 0 38 15 73 34 240 126 318 161 381 171 24 4 49 11 55 16 11 9 89 18 308
39 60 6 114 14 120 19 6 5 47 12 91 16 44 4 85 11 90 15 6 4 29 11 53 15 23 4
42 11 42 16 0 5 6 9 14 9 51 0 207 111 274 195 20 26 73 118 92 162 11 26 25
55 30 64 5 9 12 33 15 52 6 30 28 51 43 41 2 -1 7 -42 12 -90z m-14976 -76
c39 -40 85 -84 101 -98 58 -48 218 -150 235 -150 11 0 89 -32 120 -49 9 -5 31
-12 50 -16 19 -4 40 -11 45 -16 13 -10 192 -51 300 -68 70 -11 435 -12 520 -1
89 11 177 30 190 40 6 4 28 11 49 14 21 4 46 14 54 22 28 28 45 12 59 -56 8
-36 21 -78 29 -93 8 -16 17 -47 20 -70 4 -23 10 -46 14 -52 4 -5 11 -26 15
-45 4 -19 11 -39 15 -45 4 -5 10 -41 14 -80 4 -38 11 -74 16 -80 4 -5 11 -31
15 -58 4 -26 11 -50 16 -53 5 -3 9 -15 9 -27 0 -13 6 -31 14 -42 7 -11 17 -35
21 -52 3 -18 10 -33 15 -33 4 0 11 -11 14 -25 4 -14 11 -25 16 -25 6 0 10 -9
10 -19 0 -11 7 -26 15 -35 8 -8 15 -18 15 -23 0 -7 68 -112 80 -123 3 -3 30
-36 60 -75 30 -38 82 -97 115 -130 74 -75 223 -195 242 -195 7 0 13 -4 13 -9
0 -11 204 -111 228 -111 5 0 23 -7 38 -15 42 -21 336 -21 378 0 15 8 33 15 40
15 6 0 23 6 37 14 14 7 42 16 62 20 21 4 37 11 37 16 0 6 7 10 16 10 17 0 67
21 200 86 50 24 96 44 103 44 6 0 11 5 11 10 0 6 5 10 11 10 7 0 45 16 85 35
40 19 77 35 83 35 6 0 11 4 11 8 0 4 26 16 58 27 31 10 64 24 72 31 8 7 29 15
45 19 17 4 39 10 50 15 11 5 36 15 55 23 19 8 55 18 80 22 24 3 49 10 55 15
35 29 511 53 615 31 79 -17 547 -25 715 -12 83 7 230 16 329 21 98 5 199 14
225 19 25 6 125 16 221 21 257 15 410 28 450 39 19 6 91 13 160 16 69 3 142
10 162 16 21 5 68 11 105 12 l68 2 -3 -30 c-1 -16 -7 -39 -12 -50 -5 -11 -14
-45 -19 -75 -18 -101 -31 -154 -40 -159 -5 -4 -12 -21 -16 -38 -3 -18 -11 -33
-16 -33 -5 0 -9 -6 -9 -14 0 -14 -99 -217 -110 -226 -4 -3 -13 -18 -22 -35
-27 -54 -68 -129 -90 -165 -46 -76 -108 -199 -108 -212 0 -8 -9 -25 -20 -38
-11 -13 -20 -31 -20 -41 0 -10 -4 -20 -9 -23 -5 -3 -12 -22 -16 -43 -4 -20
-13 -46 -21 -57 -8 -11 -14 -33 -14 -48 0 -15 -7 -53 -15 -85 -19 -72 -19
-179 -1 -235 8 -24 17 -59 21 -78 4 -19 11 -41 16 -50 4 -8 21 -44 37 -80 17
-36 46 -99 66 -141 20 -42 36 -84 36 -93 0 -9 4 -16 8 -16 5 0 16 -32 24 -71
15 -64 14 -74 0 -112 -9 -23 -20 -44 -24 -45 -5 -2 -8 -9 -8 -16 0 -16 -115
-125 -155 -148 -30 -17 -72 -37 -130 -63 -57 -25 -222 -63 -330 -75 -44 -5
-91 -12 -105 -15 -14 -3 -77 -12 -140 -20 -198 -26 -240 -33 -253 -43 -6 -5
-40 -13 -75 -17 -34 -4 -64 -11 -67 -15 -3 -5 -26 -12 -50 -16 -25 -3 -48 -10
-51 -15 -3 -5 -22 -9 -42 -9 -20 0 -50 -7 -66 -15 -47 -25 -162 -38 -331 -38
-158 -1 -223 8 -292 39 -17 8 -40 14 -51 14 -12 0 -24 4 -27 10 -3 5 -13 10
-22 10 -8 0 -29 6 -46 14 -69 29 -143 56 -155 56 -6 0 -12 5 -12 10 0 6 -7 10
-16 10 -8 0 -32 9 -52 19 -20 11 -55 27 -77 36 -22 9 -52 23 -67 31 -14 7 -33
14 -42 14 -9 0 -16 5 -16 10 0 6 -5 10 -11 10 -10 0 -51 17 -164 70 -105 48
-133 60 -142 60 -4 0 -30 11 -58 25 -27 13 -57 25 -65 25 -8 0 -33 9 -55 20
-22 11 -50 19 -63 20 -12 0 -30 4 -40 9 -50 25 -172 42 -333 47 -177 6 -299
-3 -444 -31 -44 -9 -109 -20 -144 -25 -35 -5 -69 -14 -75 -19 -6 -5 -35 -13
-64 -17 -29 -4 -55 -11 -58 -15 -3 -5 -18 -9 -33 -9 -15 0 -36 -7 -47 -15 -10
-8 -30 -15 -44 -15 -23 0 -134 -33 -170 -50 -9 -4 -31 -11 -50 -15 -19 -4 -40
-11 -46 -16 -41 -33 -324 -29 -390 5 -16 9 -46 16 -66 16 -20 0 -39 4 -42 9
-3 4 -25 11 -48 15 -23 4 -47 11 -53 16 -6 5 -53 12 -105 15 -52 4 -106 11
-120 16 -24 9 -95 15 -495 39 -99 6 -191 15 -205 21 -14 5 -64 14 -110 18 -92
10 -176 27 -201 41 -9 4 -38 12 -65 16 -27 4 -58 13 -69 20 -11 8 -28 14 -37
14 -10 0 -26 4 -36 9 -56 30 -105 51 -117 51 -8 0 -15 4 -15 9 0 5 -12 14 -27
20 -78 31 -273 194 -323 270 -8 13 -23 34 -32 46 -10 13 -18 28 -18 34 0 6
-11 28 -24 49 -12 20 -26 48 -30 62 -4 14 -11 34 -16 45 -21 47 -40 119 -46
173 -4 31 -11 62 -15 68 -15 18 -22 340 -10 439 6 50 16 137 22 195 5 58 14
119 19 135 9 30 20 89 41 230 6 39 15 75 21 82 5 7 14 36 18 65 15 87 34 172
43 185 4 7 11 36 14 65 3 29 9 58 13 63 5 6 11 28 15 50 4 22 11 45 15 50 4 6
11 35 15 65 4 30 11 60 17 67 5 6 13 33 18 60 15 84 31 147 41 168 5 11 14 43
19 70 5 28 16 79 25 115 9 36 20 93 25 127 5 35 14 73 21 85 6 12 15 47 20 77
11 79 38 250 45 289 4 17 9 32 12 32 3 0 37 -33 76 -72z"/>
</g>
</svg>
